<?xml version="1.0" standalone="no"?>
<!DOCTYPE svg PUBLIC "-//W3C//DTD SVG 20010904//EN"
 "http://www.w3.org/TR/2001/REC-SVG-20010904/DTD/svg10.dtd">
<svg version="1.0" xmlns="http://www.w3.org/2000/svg"
 width="200.000000pt" height="200.000000pt" viewBox="0 0 200.000000 200.000000"
 preserveAspectRatio="xMidYMid meet">
<metadata>
Created by potrace 1.11, written by Peter Selinger 2001-2013
</metadata>
<g transform="translate(0.000000,200.000000) scale(0.100000,-0.100000)"
fill="#000000" stroke="none">
<path d="M902 1528 c-35 -84 -66 -159 -71 -166 -6 -10 -39 6 -135 67 -81 51
-126 75 -126 65 0 -8 11 -60 25 -117 13 -56 27 -121 31 -144 l7 -43 -39 -1
c-22 -1 -50 -3 -64 -4 -14 -1 -68 -5 -120 -9 -124 -9 -150 -12 -156 -18 -3 -3
19 -25 48 -49 29 -24 62 -52 73 -62 11 -10 46 -40 77 -65 51 -42 73 -72 50
-72 -4 0 -18 -10 -32 -23 -14 -12 -50 -42 -80 -67 -68 -56 -83 -70 -79 -74 2
-2 47 -7 99 -10 97 -7 148 -13 186 -21 21 -5 20 -6 -17 -157 -21 -84 -41 -162
-43 -173 -2 -11 -7 -32 -11 -47 -4 -16 -5 -28 -1 -28 3 0 75 43 159 95 85 52
158 95 163 95 5 0 29 -54 54 -119 36 -96 47 -115 56 -102 5 9 32 67 58 128 27
62 50 113 52 113 2 0 81 -47 175 -105 94 -59 173 -104 175 -103 2 2 -15 78
-37 168 -23 91 -43 179 -46 196 l-4 31 63 3 c35 1 79 4 98 5 19 2 55 3 80 4
l45 1 -25 22 c-14 13 -62 55 -106 94 l-82 72 144 122 c79 68 144 126 144 130
0 3 -26 8 -57 9 -32 1 -74 4 -93 6 -19 2 -80 7 -135 10 -55 4 -102 8 -104 10
-3 4 4 34 55 228 9 32 14 61 11 63 -2 3 -54 -25 -115 -61 -61 -36 -118 -68
-125 -71 -10 -4 -33 39 -83 160 -38 92 -71 166 -74 166 -4 0 -34 -69 -68 -152z
m-207 -134 c14 -9 25 -24 25 -33 0 -14 2 -14 10 -1 9 13 11 13 20 0 5 -8 8
-20 5 -27 -2 -7 0 -15 6 -18 5 -4 9 -3 8 2 -3 20 2 34 11 28 13 -8 13 -81 -1
-107 -11 -20 -13 -19 -38 20 -14 22 -47 70 -73 107 -27 36 -48 69 -48 72 0 3
11 -2 25 -11 14 -9 36 -23 50 -32z m609 9 c-16 -21 -34 -44 -41 -51 -7 -7 -13
-16 -13 -20 0 -4 -12 -20 -26 -37 -15 -16 -33 -40 -42 -53 l-15 -23 -14 32
c-15 35 -13 81 4 86 6 2 13 -4 16 -14 3 -11 5 -7 6 11 1 20 5 27 15 23 8 -3
16 -2 18 4 2 7 104 75 117 78 2 1 -9 -16 -25 -36z m-619 -143 c3 -6 -1 -7 -9
-4 -18 7 -21 14 -7 14 6 0 13 -4 16 -10z m9 -35 c20 -8 36 -17 36 -20 0 -6
-63 16 -74 26 -14 13 -3 11 38 -6z m575 -9 c-2 -2 -18 -7 -34 -11 l-30 -6 30
14 c27 13 45 14 34 3z m-689 -345 l34 -29 -94 -30 c-52 -16 -106 -33 -120 -37
-19 -6 -15 1 20 29 25 20 61 50 80 66 19 16 37 29 40 29 3 0 21 -12 40 -28z
m823 -11 c7 0 39 -25 72 -55 33 -30 58 -55 55 -54 -3 0 -54 17 -113 38 l-109
37 39 34 c31 28 39 31 41 17 2 -9 9 -17 15 -17z m-772 -78 c-5 -10 -18 -25
-27 -33 -16 -12 -17 -12 -9 1 11 17 38 50 43 50 1 0 -2 -8 -7 -18z m-41 5 c0
-2 -10 -12 -22 -23 l-23 -19 19 23 c18 21 26 27 26 19z m363 -299 c-1 -34 -2
-83 -3 -108 l-1 -45 -31 79 c-25 63 -29 83 -20 97 10 15 9 17 -5 12 -11 -4
-14 -3 -9 5 4 7 13 12 20 12 8 0 19 7 26 15 19 23 25 5 23 -67z m65 17 c-3 -3
-9 2 -12 12 -6 14 -5 15 5 6 7 -7 10 -15 7 -18z"/>
<path d="M538 873 c7 -3 16 -2 19 1 4 3 -2 6 -13 5 -11 0 -14 -3 -6 -6z"/>
<path d="M1358 853 c7 -3 16 -2 19 1 4 3 -2 6 -13 5 -11 0 -14 -3 -6 -6z"/>
</g>
</svg>
